HIERARCHY
ROOT SpineBase
{
  OFFSET 0.000000 0.000000 0.000000
  CHANNELS 6 Xposition Yposition Zposition Zrotation Xrotation Yrotation
  JOINT SpineMid
  {
    OFFSET -0.000000 30.610323 0.000000
    CHANNELS 3 Zrotation Xrotation Yrotation
    JOINT SpineShoulder
    {
      OFFSET -0.165980 22.686992 -0.644742
      CHANNELS 3 Zrotation Xrotation Yrotation
      JOINT Neck
      {
        OFFSET -0.120623 7.478698 -0.510553
        CHANNELS 3 Zrotation Xrotation Yrotation
        JOINT Head
        {
          OFFSET -0.456155 13.611796 -0.254520
          CHANNELS 3 Zrotation Xrotation Yrotation
          End Site
          {
            OFFSET 0 0 0
          }
        }
      }
      JOINT ShoulderLeft
      {
        OFFSET -16.881043 -4.167693 5.464984
        CHANNELS 3 Zrotation Xrotation Yrotation
        JOINT ElbowLeft
        {
          OFFSET -4.755043 -27.837175 1.938270
          CHANNELS 3 Zrotation Xrotation Yrotation
          JOINT WristLeft
          {
            OFFSET 0.467461 -24.042971 -2.066963
            CHANNELS 3 Zrotation Xrotation Yrotation
            JOINT HandLeft
            {
              OFFSET 0.314545 -5.203164 0.555077
              CHANNELS 3 Zrotation Xrotation Yrotation
              JOINT HandTipLeft
              {
                OFFSET 0.726739 -7.588089 1.038632
                CHANNELS 3 Zrotation Xrotation Yrotation
                End Site
                {
                  OFFSET 0 0 0
                }
              }
              JOINT ThumbLeft
              {
                OFFSET 0.994025 -1.821014 -3.195911
                CHANNELS 3 Zrotation Xrotation Yrotation
                End Site
                {
                  OFFSET 0 0 0
                }
              }
            }
          }
        }
      }
      JOINT ShoulderRight
      {
        OFFSET 16.101471 -4.328318 -5.200545
        CHANNELS 3 Zrotation Xrotation Yrotation
        JOINT ElbowRight
        {
          OFFSET 8.380778 -28.466246 -0.680459
          CHANNELS 3 Zrotation Xrotation Yrotation
          JOINT WristRight
          {
            OFFSET 6.857993 -27.529895 -3.682490
            CHANNELS 3 Zrotation Xrotation Yrotation
            JOINT HandRight
            {
              OFFSET -0.560977 -7.022414 -3.241986
              CHANNELS 3 Zrotation Xrotation Yrotation
              JOINT HandTipRight
              {
                OFFSET 0.469738 -3.728136 -3.169126
                CHANNELS 3 Zrotation Xrotation Yrotation
                End Site
                {
                  OFFSET 0 0 0
                }
              }
              JOINT ThumbRight
              {
                OFFSET 3.043591 -0.191364 -3.507673
                CHANNELS 3 Zrotation Xrotation Yrotation
                End Site
                {
                  OFFSET 0 0 0
                }
              }
            }
          }
        }
      }
    }
  }
  JOINT HipLeft
  {
    OFFSET -8.046053 0.226780 -0.965890
    CHANNELS 3 Zrotation Xrotation Yrotation
    JOINT KneeLeft
    {
      OFFSET -0.925070 -34.884075 2.757439
      CHANNELS 3 Zrotation Xrotation Yrotation
      JOINT AnkleLeft
      {
        OFFSET 1.033450 -33.840226 10.189049
        CHANNELS 3 Zrotation Xrotation Yrotation
        JOINT FootLeft
        {
          OFFSET -3.688840 -4.577489 -13.335655
          CHANNELS 3 Zrotation Xrotation Yrotation
          End Site
          {
            OFFSET 0 0 0
          }
        }
      }
    }
  }
  JOINT HipRight
  {
    OFFSET 6.640043 0.309852 -5.997739
    CHANNELS 3 Zrotation Xrotation Yrotation
    JOINT KneeRight
    {
      OFFSET 5.450155 -36.253866 0.367215
      CHANNELS 3 Zrotation Xrotation Yrotation
      JOINT AnkleRight
      {
        OFFSET 6.040449 -39.517089 9.290214
        CHANNELS 3 Zrotation Xrotation Yrotation
        JOINT FootRight
        {
          OFFSET -3.891305 -4.521605 -13.280825
          CHANNELS 3 Zrotation Xrotation Yrotation
          End Site
          {
            OFFSET 0 0 0
          }
        }
      }
    }
  }
}
MOTION
Frames: 10
Frame Time: 0.033333
82.894855 83.360060 422.665117 0.000000 0.000000 18.912829 -0.000000 0.000000 -18.912829 -0.000000 0.000000 0.000000 -0.000000 0.000000 0.000000 0.000000 0.000000 0.000000 -0.000000 0.000000 0.000000 -0.000000 0.000000 0.000000 -0.000000 0.000000 0.000000 -0.000000 0.000000 0.000000 0.000000 0.000000 0.000000 0.000000 0.000000 0.000000 -0.000000 0.000000 0.000000 -0.000000 0.000000 0.000000 -0.000000 0.000000 0.000000 -0.000000 0.000000 0.000000 0.000000 0.000000 0.000000 0.000000 0.000000 0.000000 -0.000000 0.000000 -18.912829 -0.000000 0.000000 0.000000 -0.000000 0.000000 0.000000 0.000000 0.000000 0.000000 -0.000000 0.000000 -18.912829 -0.000000 0.000000 0.000000 -0.000000 0.000000 0.000000 0.000000 0.000000 0.000000
82.863708 83.331284 422.707246 0.048699 -0.023020 18.834534 -0.038660 0.037509 -18.834512 -0.000000 0.000000 0.000000 -0.000000 0.000000 0.000000 0.000000 0.000000 0.000000 -0.000000 0.000000 0.000000 0.142013 -0.930754 -0.029172 -2.013826 3.471601 0.057756 1.870352 -2.540957 0.087107 0.000000 0.000000 0.000000 0.000000 0.000000 0.000000 -0.000000 0.000000 0.000000 -0.000000 0.000000 0.000000 1.469468 -0.473146 -0.636430 0.764424 -3.043355 -1.670294 0.000000 0.000000 0.000000 0.000000 0.000000 0.000000 -0.038660 0.037509 -18.834512 -0.000000 0.000000 0.000000 -0.000000 0.000000 0.000000 0.000000 0.000000 0.000000 -0.038660 0.037509 -18.834512 -0.000000 0.000000 0.000000 -0.000000 0.000000 0.000000 0.000000 0.000000 0.000000
82.843362 83.307576 422.736394 0.102939 -0.038622 18.775850 -0.085030 0.069699 -18.775763 -0.000000 0.000000 0.000000 1.357187 0.341599 0.032769 0.000000 0.000000 0.000000 1.295388 0.134513 0.065835 -1.138584 -1.720506 -0.110891 -4.016570 6.771787 0.232909 3.849707 -5.184911 0.269709 0.000000 0.000000 0.000000 0.000000 0.000000 0.000000 -0.000000 0.000000 0.000000 -0.000000 0.000000 0.000000 2.706248 -0.870273 -1.165774 0.509658 -5.357979 -2.239539 0.000000 0.000000 0.000000 0.000000 0.000000 0.000000 -0.085030 0.069699 -18.775763 -0.000000 0.000000 0.000000 -0.000000 0.000000 0.000000 0.000000 0.000000 0.000000 -0.085030 0.069699 -18.775763 -0.000000 0.000000 0.000000 -0.000000 0.000000 0.000000 0.000000 0.000000 0.000000
82.833817 83.288938 422.752561 0.162729 -0.046818 18.737120 -0.139066 0.096609 -18.736936 -0.000000 0.000000 0.000000 1.870616 0.494077 0.043452 0.000000 0.000000 0.000000 1.774609 0.198068 0.086913 -1.728250 -2.166775 -0.134726 -5.967236 9.830429 0.505515 5.898728 -7.858749 0.553753 0.000000 0.000000 0.000000 0.000000 0.000000 0.000000 -0.000000 0.000000 0.000000 -0.000000 0.000000 0.000000 3.719763 -1.187742 -1.596100 -0.288766 -7.354657 -2.184198 0.000000 0.000000 0.000000 0.000000 0.000000 0.000000 -0.139066 0.096609 -18.736936 -0.000000 0.000000 0.000000 -0.000000 0.000000 0.000000 0.000000 0.000000 0.000000 -0.139066 0.096609 -18.736936 0.229396 -0.795316 -0.065922 -0.230333 0.795045 0.069112 0.000000 0.000000 0.000000
82.835072 83.275368 422.755747 0.228083 -0.047615 18.718594 -0.200739 0.118293 -18.718292 -0.000000 0.000000 0.000000 2.274443 0.634283 0.051170 0.000000 0.000000 0.000000 2.140448 0.258667 0.100373 -2.332417 -2.335867 -0.138697 -7.805735 12.564138 0.842595 7.253960 -9.850833 0.775117 0.000000 0.000000 0.000000 0.000000 0.000000 0.000000 -0.000000 0.000000 0.000000 -0.000000 0.000000 0.000000 4.518872 -1.423341 -1.934416 -1.439083 -9.278315 -1.710871 0.000000 0.000000 0.000000 0.000000 0.000000 0.000000 -0.200739 0.118293 -18.718292 -0.000000 0.000000 0.000000 -0.000000 0.000000 0.000000 0.000000 0.000000 0.000000 -0.200739 0.118293 -18.718292 0.316755 -0.898596 -0.060271 -0.317739 0.898248 0.065246 0.000000 0.000000 0.000000
82.847128 83.266867 422.745952 0.299016 -0.041017 18.720422 -0.270033 0.134816 -18.719997 -0.000000 0.000000 0.000000 2.569137 0.762225 0.056463 0.000000 0.000000 0.000000 2.393133 0.316042 0.106469 -2.955403 -2.222561 -0.121246 -9.456500 14.885138 1.197479 8.231599 -12.002481 0.875952 0.000000 0.000000 0.000000 0.000000 0.000000 0.000000 0.859460 0.140176 0.019629 -0.859511 -0.139865 -0.021729 5.111414 -1.575877 -2.186493 -2.879410 -11.300544 -0.907200 0.000000 0.000000 0.000000 0.000000 0.000000 0.000000 -0.270033 0.134816 -18.719997 -0.000000 0.000000 0.000000 -0.000000 0.000000 0.000000 0.000000 0.000000 0.000000 -0.270033 0.134816 -18.719997 0.407988 -0.913088 -0.040310 -0.408682 0.912777 0.046817 0.000000 0.000000 0.000000
82.880029 83.260779 422.721390 0.382066 -0.032062 18.770115 -0.351432 0.153294 -18.769538 -0.000000 0.000000 0.000000 2.786175 0.962880 0.060919 0.000000 0.000000 0.000000 2.613813 0.410891 0.102894 -3.725861 -1.859729 -0.076497 -11.457660 17.568919 1.699665 9.470386 -16.768468 0.754807 0.000000 0.000000 0.000000 0.000000 0.000000 0.000000 1.017608 0.207820 0.034921 -1.573628 -0.838376 -0.126887 5.921549 -1.218717 -2.248380 -5.809183 -13.939322 1.155477 0.000000 0.000000 0.000000 0.000000 0.000000 0.000000 -0.351432 0.153294 -18.769538 -0.000000 0.000000 0.000000 -0.000000 0.000000 0.000000 0.000000 0.000000 0.000000 -0.351432 0.153294 -18.769538 0.533146 -0.763431 0.012167 -0.533032 0.763511 -0.005064 0.000000 0.000000 0.000000
82.918266 83.260713 422.693376 0.468147 -0.009674 18.822167 -0.439993 0.160194 -18.821512 0.836526 -0.092713 0.056280 1.943580 1.163421 0.002459 0.000000 0.000000 0.000000 1.759900 0.568187 0.029708 -4.386755 -1.022321 0.009442 -12.629406 17.313240 1.634051 8.416546 -15.946552 0.174771 0.000000 0.000000 0.000000 0.000000 0.000000 0.000000 0.305412 0.325732 -0.017813 -1.818838 -0.949155 -0.138972 6.259375 -1.174437 -2.348492 -9.125742 -16.819213 3.548912 0.000000 0.000000 0.000000 0.000000 0.000000 0.000000 -0.439993 0.160194 -18.821512 0.849589 0.142734 0.259148 -0.850228 -0.138874 -0.261237 0.000000 0.000000 0.000000 -0.439993 0.160194 -18.821512 -0.000000 0.000000 0.000000 -0.000000 0.000000 0.000000 0.000000 0.000000 0.000000
82.952030 83.272135 422.646600 0.553169 0.020664 18.853948 -0.530168 0.159204 -18.853311 0.901915 -0.083031 0.060876 1.825124 1.184497 -0.001837 0.000000 0.000000 0.000000 1.431998 0.509032 0.018120 -4.862217 0.286036 0.129748 -13.599429 17.640474 1.624826 7.557010 -16.289495 -0.379050 0.000000 0.000000 0.000000 0.000000 0.000000 0.000000 0.230391 0.479683 0.024409 -1.749141 -1.280560 -0.241343 5.887651 -0.158829 -2.269315 -12.568827 -22.624785 5.689045 0.000000 0.000000 0.000000 0.000000 0.000000 0.000000 -0.530168 0.159204 -18.853311 0.735785 0.260621 0.227939 -0.736824 -0.257671 -0.231270 0.000000 0.000000 0.000000 -0.530168 0.159204 -18.853311 0.832581 -0.292218 0.152932 -1.617812 2.261128 0.466664 0.000000 0.000000 0.000000
82.986383 83.287971 422.583924 0.621227 0.054409 18.872288 -0.605430 0.149457 -18.871794 0.917240 -0.076852 0.061984 1.775180 1.130676 -0.003471 0.000000 0.000000 0.000000 1.148733 0.527721 -0.004872 -5.315419 1.634677 0.278505 -14.976942 18.811183 1.806419 7.137666 -15.516002 -0.527596 0.000000 0.000000 0.000000 0.000000 0.000000 0.000000 0.445901 0.579918 0.046717 -2.165953 -1.470149 -0.270326 6.542190 -0.251827 -2.484809 -12.620797 -22.822397 5.623904 0.000000 0.000000 0.000000 0.000000 0.000000 0.000000 -1.446691 0.244996 -18.929428 0.826750 0.182550 0.059213 -0.000000 0.000000 0.000000 0.000000 0.000000 0.000000 -0.605430 0.149457 -18.871794 0.899518 -0.517446 0.136134 -0.898323 0.519518 -0.127999 0.000000 0.000000 0.000000
